<?xml version="1.0" encoding="UTF-8" standalone="no"?><!DOCTYPE svg PUBLIC "-//W3C//DTD SVG 1.1//EN" "http://www.w3.org/Graphics/SVG/1.1/DTD/svg11.dtd"><svg width="100%" height="100%" viewBox="0 0 2495 3062" version="1.1" xmlns="http://www.w3.org/2000/svg" xmlns:xlink="http://www.w3.org/1999/xlink" xml:space="preserve" xmlns:serif="http://www.serif.com/" style="fill-rule:evenodd;clip-rule:evenodd;stroke-linejoin:round;stroke-miterlimit:2;"><g id="total"><g><path d="M550.777,1916.16c0,-0 -54.166,-750 -279.166,-1341.67c-0,-0 -159.303,57.859 -216.667,-25c-37.5,-54.167 79.167,-162.5 79.167,-162.5c-0,-0 -120.834,79.167 -133.334,-0c-12.5,-79.167 129.167,-216.667 179.167,-233.333c50,-16.667 133.333,37.5 783.334,1629.17c-0,0 91.666,262.5 -154.167,512.5c-0,0 529.166,120.834 883.333,-258.333c0,-0 437.5,-1479.17 654.167,-1925c-0,-0 183.333,87.5 141.667,212.5c-41.667,125 -95.834,145.833 -112.5,162.5c-16.667,16.667 -312.5,1333.33 -225,2187.5c-0,-0 -775,279.167 -1683.33,16.667c0,-0 66.667,-141.667 75,-400c0,-0 -150,-0 -162.5,-70.834c-12.5,-70.833 58.334,-112.5 58.334,-112.5c-0,0 -66.667,0 -75,-33.333c-11.785,-47.14 112.5,-125 187.5,-158.333Z" style="fill:#009245;fill-rule:nonzero;"/><path d="M438.277,2624.49c0,-0 -162.5,54.167 -37.5,141.667c125,87.5 666.667,120.833 775.001,125c-0,-0 -829.167,87.5 -1020.83,-104.167c-112.5,-112.5 283.333,-162.5 283.333,-162.5Z" style="fill:#1e61aa;fill-rule:nonzero;"/><path d="M1779.94,2891.16c0,-0 670.834,-108.334 429.167,-250c-0,-0 204.167,20.833 204.167,83.333c-0,62.5 -216.667,150 -633.334,166.667Z" style="fill:#1e61aa;fill-rule:nonzero;"/><path d="M829.944,3028.66c0,-0 290.727,-14.511 495.833,-54.167c0,-0 112.5,62.5 320.834,50c-0,-0 -321.773,81.324 -816.667,4.167Z" style="fill:#1e61aa;fill-rule:nonzero;"/><g><path d="M254.944,228.66c0,-0 87.5,-8.334 100,12.5c9.587,15.978 -12.5,54.166 -45.833,79.166l-54.167,-91.666Z" style="fill:#009245;fill-rule:nonzero;"/><path d="M341.291,404.773c-0,-0 87.291,-11.235 100.267,12.166c9.953,17.948 -11.25,61.756 -44.002,90.816l-56.265,-102.982Z" style="fill:#009245;fill-rule:nonzero;"/><path d="M470.167,669.959c-0,-0 74.523,-2.797 86.891,23.383c9.487,20.078 -6.503,66.247 -33.187,100.184l-53.704,-123.567Z" style="fill:#009245;fill-rule:nonzero;"/><path d="M586.279,927.351c-0,-0 76.526,-7.333 91.791,25.427c11.709,25.125 -0.32,84.813 -24.547,129.44l-67.244,-154.867Z" style="fill:#009245;fill-rule:nonzero;"/><path d="M694.612,1202.35c0,-0 76.526,-7.333 91.792,25.427c11.708,25.125 -0.321,84.813 -24.548,129.44l-67.244,-154.867Z" style="fill:#009245;fill-rule:nonzero;"/><path d="M794.612,1460.68c0,0 91.417,-4.594 109.655,34.542c13.988,30.016 -0.383,97.149 -29.325,150.458l-80.33,-185Z" style="fill:#009245;fill-rule:nonzero;"/><path d="M907.515,1742.96c-0,-0 98.275,7.666 112.371,51.978c10.812,33.984 -13.772,103.713 -52.019,156.673l-60.352,-208.651Z" style="fill:#009245;fill-rule:nonzero;"/><path d="M2269.07,312.521c-0,-0 -69.072,-51.034 -60.459,-73.75c6.607,-17.423 42.167,-22.61 98.875,-25.551l-38.416,99.301Z" style="fill:#009245;fill-rule:nonzero;"/><path d="M2210.73,483.354c0,0 -64.905,-59.367 -56.291,-82.083c6.606,-17.423 38,-26.776 94.708,-29.718l-38.417,111.801Z" style="fill:#009245;fill-rule:nonzero;"/><path d="M2116.4,713.615c-0,-0 -48.619,-73.217 -35.847,-99.202c9.795,-19.929 51.704,-27.853 94.875,-28.125l-59.028,127.327Z" style="fill:#009245;fill-rule:nonzero;"/><path d="M2049.65,960.515c0,-0 -55.868,-67.84 -45.869,-94.937c7.669,-20.783 48.48,-32.87 91.334,-37.484l-45.465,132.421Z" style="fill:#009245;fill-rule:nonzero;"/><path d="M1992.68,1079.55c0,-0 -65.221,16.708 -76.304,51.11c-11.436,35.498 26.064,110.498 24.819,109.685l51.485,-160.795Z" style="fill:#009245;fill-rule:nonzero;"/><path d="M1918.91,1346.56c-0,-0 -80.353,3.985 -92.875,39.809c-9.605,27.475 8.84,84.93 38.819,129.02l54.056,-168.829Z" style="fill:#009245;fill-rule:nonzero;"/><path d="M1831.03,1636.62c-0,-0 -97.682,13.227 -109.244,58.265c-8.867,34.541 19.63,102.765 60.818,153.472l48.426,-211.737Z" style="fill:#009245;fill-rule:nonzero;"/><path d="M1755.75,1986.88c0,-0 -89.195,-24.398 -115.693,10.25c-20.324,26.574 -20.733,95.932 -3.763,154.819l119.456,-165.069Z" style="fill:#009245;fill-rule:nonzero;"/></g><g><path d="M1169.26,1.125l49.667,-1.125l-43.976,191.469l55.33,-0.75l-11.166,46.088l-103.038,3.375l53.183,-239.057Z" style="fill:#009245;fill-rule:nonzero;"/><path d="M1241.07,234.559l44.103,-219.195l108.485,-3.748l-8.666,40.092l-62.436,3.375l-9.076,48.709l32.347,-0.75l-8.492,42.715l-31.025,-0l-8.87,46.086l67.033,-3.371l-5.304,40.466l-118.099,5.621Z" style="fill:#009245;fill-rule:nonzero;"/><path d="M1431.13,169.738c1.215,43.84 28.651,32.597 33.978,8.991c11.246,-49.833 -65.659,-46.836 -52.468,-105.289c9.132,-40.466 46.169,-63.696 78.597,-64.821c31.667,-1.125 58.811,19.483 50.069,66.696l-42.513,3.371c0.306,-21.732 -11.189,-25.103 -15.404,-25.103c-21.833,-0 -35.583,26.977 -16.11,40.84c50.871,35.971 47.125,64.449 42.645,84.306c-9.471,41.967 -39.7,62.2 -68.129,62.574c-30.435,0.75 -58.473,-20.981 -55.98,-62.574l45.315,-8.991Z" style="fill:#009245;fill-rule:nonzero;"/></g><path d="M671.628,510.455c32.693,-3.247 57.158,-33.836 70.649,-74.6l82.927,30.382l-6.042,16.688c-99.453,229.516 -324.55,135.216 -341.076,-80.365c-12.306,-158.875 33.048,-282.456 179.345,-296.986c66.202,-6.573 109.745,22.894 141.851,80.042l-71.047,61.767c-18.11,-28.778 -46.518,-46.069 -84.932,-42.254c-93.991,9.338 -90.183,317.095 28.325,305.326Z" style="fill:#009245;fill-rule:nonzero;"/><path d="M876.368,343.45c30.256,-6.047 61.053,-8.963 91.906,-8.702c61.676,1.828 112.396,23.993 100.429,99.936c-11.758,74.22 -61.355,85.254 -82.778,88.679l49.607,163.715l-78.77,-1.381l-37.041,-154.875l-20.981,160.402c-8.614,0.797 -61.732,3.33 -68.567,3.509l46.195,-351.283Zm59,47.734l-7.772,74.115c29.866,6.667 81.757,0.157 78.997,-52.481c-1.02,-24.611 -55.569,-24.334 -71.225,-21.634l0,0Z" style="fill:#009245;fill-rule:nonzero;"/><path d="M1224.5,490.245c181.647,31.084 84.573,381.018 -98.49,350.81c-72.242,-11.891 -123.357,-102.203 -95.806,-194.388c32.281,-107.996 90.194,-173.998 194.296,-156.422Zm-78.333,281.433c74.984,18.202 163.696,-195.356 56.035,-216.518c-87.437,-17.187 -161.295,191.211 -56.034,216.518l-0.001,-0Z" style="fill:#009245;fill-rule:nonzero;"/><path d="M1476.46,855c22.698,-1.795 40.128,-23.578 50.113,-52.936l56.973,23.48l-4.446,12.011c-72.492,164.894 -226.962,92.57 -235.042,-64.202c-6.042,-115.538 27.312,-204.461 128.893,-212.494c45.965,-3.634 75.673,18.503 97.022,60.542l-50.19,43.612c-12.09,-21.197 -31.502,-34.237 -58.176,-32.129c-65.257,5.16 -67.432,228.621 14.853,222.116Z" style="fill:#009245;fill-rule:nonzero;"/><path d="M1789.63,393.113c183.677,28.022 107.141,392.228 -77.907,365.143c-73.022,-10.656 -129.519,-102.927 -107.377,-198.911c25.947,-112.455 80.033,-182.045 185.284,-166.232Zm-61.821,292.912c76.14,17.131 152.352,-205.807 43.326,-225.252c-88.547,-15.792 -150.195,201.465 -43.326,225.252Z" style="fill:#009245;fill-rule:nonzero;"/><path d="M1966.14,455.865c32.593,59.255 64.235,31.923 55.306,-2.597c-18.845,-72.881 -127.598,-35.156 -149.702,-120.64c-15.306,-59.177 21.74,-107.057 67.702,-122.777c44.859,-15.383 98.48,0.85 119.095,69.054l-58.914,23.196c-14.842,-29.77 -33.791,-29.343 -39.866,-27.5c-31.474,9.552 -32.315,52.356 5.508,62.746c98.644,26.801 113.278,67.275 120.787,96.318c15.869,61.372 -13.477,102.185 -54.2,115.134c-43.339,14.331 -99.046,-3.041 -124.714,-60.849l58.998,-32.085Z" style="fill:#009245;fill-rule:nonzero;"/></g></g><g id="yeux"><g><path id="_Masque_3_" serif:id="_Masque_3" d="M659.111,2003.66c-0,-0 -13.44,-39.511 -37.5,-50c-13.771,-6.004 -159.926,44.24 -158.334,83.333c1.2,29.438 166.667,-12.5 195.834,-33.333Z" style="fill:#fcfcfc;fill-rule:nonzero;"/><g><clipPath id="_clip1"><path d="M1501.59,2622.43c-0,-0 -13.44,-39.511 -37.5,-50c-13.772,-6.004 -159.926,44.241 -158.334,83.333c1.199,29.439 166.667,-12.5 195.834,-33.333Z"/></clipPath><g clip-path="url(#_clip1)"><path d="M578.474,1951.26c46.353,-11.444 86.9,-8.935 90.488,5.6c3.588,14.534 -31.132,35.625 -77.485,47.069c-46.354,11.444 -86.901,8.935 -90.489,-5.6c-3.588,-14.534 31.132,-35.626 77.486,-47.069Z"/></g></g></g><g><path id="_Masque_4_" serif:id="_Masque_4" d="M667.444,2136.99c11.084,-7.125 12.5,-70.833 4.167,-79.167c-10.625,-10.625 -195.834,45.834 -191.667,87.5c3.343,33.427 129.167,29.167 187.5,-8.333Z" style="fill:#fcfcfc;fill-rule:nonzero;"/><g><clipPath id="_clip2"><path d="M1509.93,2755.76c11.083,-7.125 12.5,-70.833 4.167,-79.166c-10.625,-10.625 -195.834,45.833 -191.667,87.5c3.342,33.426 129.167,29.166 187.5,-8.334Z"/></clipPath><g clip-path="url(#_clip2)"><path d="M607.64,2059.59c46.354,-11.444 86.9,-8.934 90.489,5.6c3.588,14.535 -31.132,35.626 -77.486,47.07c-46.354,11.443 -86.9,8.934 -90.489,-5.6c-3.588,-14.535 31.132,-35.626 77.486,-47.07Z"/></g></g></g></g></svg>