<svg xmlns="http://www.w3.org/2000/svg" xmlns:xlink="http://www.w3.org/1999/xlink" viewBox="0 0 598.6651 734.8568">
  <defs>
    <style>
      .cls-1 {
        fill: #fcfcfc;
      }

      .cls-2 {
        fill: #009245;
      }

      .cls-3 {
        clip-path: url(#clip-path);
      }

      .cls-4 {
        clip-path: url(#clip-path-2);
      }

            .cls-5 {
         fill: #fff;
      }
    </style>
    <clipPath id="clip-path" transform="translate(-202.1956 -148.5039)">
      <path id="_Masque_" data-name="&lt;Masque&gt;" class="cls-1" d="M360.3822,629.3822s-3.2255-9.4826-9-12c-3.3051-1.4409-38.3822,10.6178-38,20C313.67,644.4474,353.3822,634.3822,360.3822,629.3822Z"/>
    </clipPath>
    <clipPath id="clip-path-2" transform="translate(-202.1956 -148.5039)">
      <path id="_Masque_2" data-name="&lt;Masque&gt;" class="cls-1" d="M362.3822,661.3822c2.66-1.71,3-17,1-19-2.55-2.55-47,11-46,21C318.1844,671.4045,348.3822,670.3822,362.3822,661.3822Z"/>
    </clipPath>
  </defs>
  <title>LesCrocos_vectoriel</title>
  <g id="total">
    <g>
      <path class="cls-2" d="M334.3822,608.3822s-13-180-67-322c0,0-38.2326,13.8862-52-6-9-13,19-39,19-39s-29,19-32,0,31-52,43-56,32,9,188,391c0,0,22,63-37,123,0,0,127,29,212-62,0,0,105-355,157-462,0,0,44,21,34,51s-23,35-27,39-75,320-54,525c0,0-186,67-404,4,0,0,16-34,18-96,0,0-36,0-39-17s14-27,14-27-16,0-18-8C286.5538,635.0685,316.3822,616.3822,334.3822,608.3822Z" transform="translate(-202.1956 -148.5039)"/>
      <path class="cls-5" d="M307.3822,778.3822s-39,13-9,34,160,29,186,30c0,0-199,21-245-25C212.3822,790.3822,307.3822,778.3822,307.3822,778.3822Z" transform="translate(-202.1956 -148.5039)"/>
      <path class="cls-5" d="M629.3822,842.3822s161-26,103-60c0,0,49,5,49,20S729.3822,838.3822,629.3822,842.3822Z" transform="translate(-202.1956 -148.5039)"/>
      <path class="cls-5" d="M401.3822,875.3822s69.7745-3.4826,119-13c0,0,27,15,77,12C597.3822,874.3822,520.1567,893.9,401.3822,875.3822Z" transform="translate(-202.1956 -148.5039)"/>
      <g>
        <path class="cls-2" d="M263.3822,203.3822s21-2,24,3c2.3009,3.8348-3,13-11,19Z" transform="translate(-202.1956 -148.5039)"/>
        <path class="cls-2" d="M284.1054,245.6493s20.95-2.6963,24.0641,2.92c2.3887,4.3075-2.7,14.8213-10.5605,21.7959Z" transform="translate(-202.1956 -148.5039)"/>
        <path class="cls-2" d="M315.0356,309.294s17.8856-.6712,20.854,5.6119c2.2767,4.8189-1.5609,15.8994-7.9649,24.0442Z" transform="translate(-202.1956 -148.5039)"/>
        <path class="cls-2" d="M342.9025,371.0681s18.3662-1.76,22.03,6.1026c2.81,6.03-.0769,20.355-5.8915,31.0656Z" transform="translate(-202.1956 -148.5039)"/>
        <path class="cls-2" d="M368.9025,437.0681s18.3662-1.76,22.03,6.1026c2.81,6.03-.0769,20.355-5.8915,31.0656Z" transform="translate(-202.1956 -148.5039)"/>
        <path class="cls-2" d="M392.9025,499.0681s21.94-1.1026,26.3171,8.29c3.3571,7.2038-.0919,23.3158-7.0379,36.11Z" transform="translate(-202.1956 -148.5039)"/>
        <path class="cls-2" d="M419.9992,566.814s23.5859,1.84,26.9691,12.4748c2.5948,8.1562-3.3054,24.8911-12.4846,37.6016Z" transform="translate(-202.1956 -148.5039)"/>
        <path class="cls-2" d="M746.7716,223.5089s-16.5772-12.2482-14.51-17.7c1.5856-4.1816,10.12-5.4263,23.73-6.1322Z" transform="translate(-202.1956 -148.5039)"/>
        <path class="cls-2" d="M732.7716,264.5089s-15.5772-14.2482-13.51-19.7c1.5856-4.1816,9.12-6.4263,22.73-7.1322Z" transform="translate(-202.1956 -148.5039)"/>
        <path class="cls-2" d="M710.1315,319.7714s-11.6684-17.5719-8.6032-23.8083c2.3509-4.7831,12.4089-6.6849,22.77-6.75Z" transform="translate(-202.1956 -148.5039)"/>
        <path class="cls-2" d="M694.1117,379.0274s-13.4084-16.2814-11.0086-22.7848c1.8405-4.9879,11.6351-7.8889,21.92-8.9961Z" transform="translate(-202.1956 -148.5039)"/>
        <path class="cls-2" d="M680.44,407.5963s-15.653,4.01-18.313,12.2666c-2.7446,8.5194,6.2554,26.5194,5.9565,26.3243Z" transform="translate(-202.1956 -148.5039)"/>
        <path class="cls-2" d="M662.7347,471.6785s-19.2846.9565-22.29,9.5542c-2.3053,6.5941,2.1216,20.3832,9.3165,30.9649Z" transform="translate(-202.1956 -148.5039)"/>
        <path class="cls-2" d="M641.6425,541.2914s-23.4436,3.1746-26.2185,13.9836c-2.1282,8.29,4.7112,24.6637,14.5962,36.8334Z" transform="translate(-202.1956 -148.5039)"/>
        <path class="cls-2" d="M623.5756,625.3538s-21.4068-5.8554-27.7664,2.46c-4.8776,6.3779-4.9759,23.0238-.9031,37.1566Z" transform="translate(-202.1956 -148.5039)"/>
      </g>
      <g>
        <path class="cls-2" d="M482.819,148.7738l11.92-.27-10.5543,45.9526,13.2794-.18-2.68,11.0612-24.7291.81Z" transform="translate(-202.1956 -148.5039)"/>
        <path class="cls-2" d="M500.0523,204.798l10.5848-52.6068,26.0365-.8994-2.08,9.6221-14.9845.81-2.1782,11.69,7.7632-.18-2.0381,10.2516H515.71l-2.1289,11.0607,16.0879-.8091-1.2728,9.7119Z" transform="translate(-202.1956 -148.5039)"/>
        <path class="cls-2" d="M545.6671,189.241c.2916,10.5215,6.8761,7.8234,8.1546,2.1579,2.6991-11.96-15.7582-11.2408-12.5923-25.2694,2.1917-9.7119,11.0807-15.2871,18.8633-15.557,7.6-.27,14.1147,4.6759,12.0166,16.0069l-10.2031.8091c.0735-5.2156-2.6853-6.0247-3.697-6.0247-5.24,0-8.54,6.4746-3.8663,9.8017,12.209,8.633,11.31,15.4677,10.2347,20.2334-2.273,10.072-9.528,14.928-16.351,15.0178-7.3043.18-14.0335-5.0355-13.4351-15.0178Z" transform="translate(-202.1956 -148.5039)"/>
      </g>
      <path class="cls-2" d="M363.3864,271.0131c7.8462-.7794,13.7178-8.1207,16.9557-17.904l19.9024,7.2916-1.45,4.0051c-23.8688,55.0839-77.892,32.4519-81.8582-19.2876-2.9536-38.13,7.9314-67.7893,43.0427-71.2765,15.8885-1.5776,26.3388,5.4944,34.0443,19.21l-17.0513,14.824c-4.3464-6.9065-11.1644-11.0564-20.3836-10.1409C334.0306,199.9759,334.9445,273.8377,363.3864,271.0131Z" transform="translate(-202.1956 -148.5039)"/>
      <path class="cls-2" d="M412.524,230.9319a107.8855,107.8855,0,0,1,22.0573-2.0884c14.8023.4386,26.9752,5.7583,24.1031,23.9845-2.8221,17.8128-14.7252,20.461-19.8669,21.2829l11.9059,39.2916-18.9048-.3313-8.89-37.17-5.0353,38.4964c-2.0674.1914-14.8157.7992-16.4562.8422Zm14.16,11.4562-1.8653,17.7876c7.1677,1.6,19.6215.0376,18.9592-12.5956C443.5332,241.6735,430.4414,241.74,426.6839,242.3881Z" transform="translate(-202.1956 -148.5039)"/>
      <path class="cls-2" d="M496.0757,266.1628c43.5952,7.46,20.2975,91.4441-23.6376,84.1942-17.3381-2.8537-29.6057-24.5286-22.9935-46.653C457.1921,277.7849,471.0912,261.9445,496.0757,266.1628Zm-18.8,67.5438c17.9961,4.3685,39.2871-46.8854,13.4483-51.9644C469.7392,277.6175,452.0133,327.633,477.2758,333.7065Z" transform="translate(-202.1956 -148.5039)"/>
      <path class="cls-2" d="M556.5466,353.7039c5.4474-.4309,9.6307-5.6588,12.0271-12.7047l13.6733,5.6352L581.18,349.517c-17.3979,39.5746-54.4707,22.2169-56.41-15.4083-1.45-27.7292,6.555-49.0707,30.9343-50.9986,11.0315-.8722,18.1615,4.4406,23.2852,14.53l-12.0454,10.467c-2.9017-5.0874-7.5606-8.2169-13.9624-7.7111C537.32,301.6345,536.798,355.2652,556.5466,353.7039Z" transform="translate(-202.1956 -148.5039)"/>
      <path class="cls-2" d="M631.707,242.8509c44.0826,6.7255,25.7138,94.1348-18.6977,87.6344-17.5253-2.5575-31.0846-24.7024-25.7705-47.7387C593.4662,255.7575,606.4468,239.0558,631.707,242.8509ZM616.87,313.15c18.2736,4.1114,36.5644-49.3938,10.3982-54.0606C606.017,255.2993,591.2214,307.441,616.87,313.15Z" transform="translate(-202.1956 -148.5039)"/>
      <path class="cls-2" d="M674.07,257.9114c7.8222,14.2212,15.4163,7.6616,13.2734-.6233-4.5228-17.4913-30.6235-8.4373-35.9285-28.9535-3.6735-14.2024,5.2175-25.6937,16.2484-29.4665,10.7661-3.692,23.6353.204,28.5829,16.5731l-14.1393,5.567c-3.5622-7.1449-8.11-7.0425-9.5679-6.6-7.5538,2.2923-7.7557,12.5654,1.3218,15.0589,23.6746,6.4324,27.1867,16.146,28.989,23.1164,3.8084,14.7292-3.2345,24.5245-13.008,27.6322-10.4013,3.4394-23.7711-.73-29.9313-14.6038Z" transform="translate(-202.1956 -148.5039)"/>
    </g>
  </g>
  <g id="yeux">
    <g>
      <path id="_Masque_3" data-name="&lt;Masque&gt;" class="cls-1" d="M360.3822,629.3822s-3.2255-9.4826-9-12c-3.3051-1.4409-38.3822,10.6178-38,20C313.67,644.4474,353.3822,634.3822,360.3822,629.3822Z" transform="translate(-202.1956 -148.5039)"/>
      <g class="cls-3">
        <ellipse cx="342.5895" cy="623.1262" rx="20.7621" ry="6.5101" transform="translate(-341.5628 -48.2272) rotate(-13.8679)"/>
      </g>
    </g>
    <g>
      <path id="_Masque_4" data-name="&lt;Masque&gt;" class="cls-1" d="M362.3822,661.3822c2.66-1.71,3-17,1-19-2.55-2.55-47,11-46,21C318.1844,671.4045,348.3822,670.3822,362.3822,661.3822Z" transform="translate(-202.1956 -148.5039)"/>
      <g class="cls-4">
        <ellipse cx="349.5895" cy="649.1262" rx="20.7621" ry="6.5101" transform="translate(-347.5906 -45.7915) rotate(-13.8679)"/>
      </g>
    </g>
  </g>
</svg>
