<?xml version="1.0" encoding="UTF-8" standalone="no"?><!DOCTYPE svg PUBLIC "-//W3C//DTD SVG 1.1//EN" "http://www.w3.org/Graphics/SVG/1.1/DTD/svg11.dtd"><svg width="100%" height="100%" viewBox="0 0 2000 300" version="1.1" xmlns="http://www.w3.org/2000/svg" xmlns:xlink="http://www.w3.org/1999/xlink" xml:space="preserve" xmlns:serif="http://www.serif.com/" style="fill-rule:evenodd;clip-rule:evenodd;stroke-linejoin:round;stroke-miterlimit:2;"><path id="vague2" d="M2076.48,253.624c-182.159,-0.842 -305.484,-50.233 -429.039,-49.93c-84.187,0.207 -157.483,57.109 -288.886,29.584c-308.828,-64.688 -273.299,-52.37 -416.818,-32.701c-188.702,25.861 -347.937,20.146 -495.522,-1.381c-108.319,-15.799 -156.239,75.222 -464.498,3.831l14.64,178.27l2024,2.891l56.128,-130.564Z" style="fill:#020ac0;"/><path id="vague1" d="M2034.1,243.026c-58.657,-8.428 -79.838,-29.988 -169.85,-33.753c-38.165,-1.596 -87.875,27.666 -150.397,35.084c-90.265,10.709 -131.836,-4.173 -193.402,-15.737c-86.423,-16.233 -116.01,-28.934 -178.41,-29.14c-10.028,-0.033 -20.905,0.256 -33.001,0.906c-175.177,9.407 -255.39,78.887 -360.775,26.1c-35.359,-17.711 -116.152,-38.992 -175.443,-39.102c-89.12,-0.166 -165.887,30.337 -255.906,55.721c-33.175,9.355 -143.532,24.777 -265.597,-27.251c-62.788,-26.762 -195.593,1.509 -272.188,20.917l18.771,144.526l2013.36,2.891l22.834,-141.162Z" style="fill:#0bb5ff;"/></svg>